<svg width="1600" height="1000" viewBox="0 0 1600 1000" fill="none" xmlns="http://www.w3.org/2000/svg">
  <defs>
    <linearGradient id="bg" x1="120" y1="90" x2="1480" y2="920" gradientUnits="userSpaceOnUse">
      <stop stop-color="#2F1236"/>
      <stop offset="0.48" stop-color="#5B1539"/>
      <stop offset="1" stop-color="#742A6B"/>
    </linearGradient>
    <radialGradient id="g1" cx="0" cy="0" r="1" gradientUnits="userSpaceOnUse" gradientTransform="translate(320 260) rotate(30) scale(420 300)">
      <stop stop-color="#F9A8D4" stop-opacity="0.28"/>
      <stop offset="1" stop-color="#F9A8D4" stop-opacity="0"/>
    </radialGradient>
    <radialGradient id="g2" cx="0" cy="0" r="1" gradientUnits="userSpaceOnUse" gradientTransform="translate(1280 700) rotate(-20) scale(420 280)">
      <stop stop-color="#FDE68A" stop-opacity="0.22"/>
      <stop offset="1" stop-color="#FDE68A" stop-opacity="0"/>
    </radialGradient>
  </defs>

  <rect width="1600" height="1000" rx="28" fill="url(#bg)"/>
  <rect width="1600" height="1000" fill="url(#g1)"/>
  <rect width="1600" height="1000" fill="url(#g2)"/>

  <g opacity="0.18">
    <path d="M120 790C250 700 380 700 520 772C650 840 780 842 925 780C1090 709 1230 713 1480 820" stroke="#FBCFE8" stroke-width="3"/>
    <path d="M120 850C260 765 385 770 520 835C650 897 785 900 930 845C1090 785 1230 785 1480 880" stroke="#FDE68A" stroke-width="2"/>
  </g>

  <g>
    <rect x="138" y="165" width="520" height="300" rx="22" fill="#150D1D" stroke="#6B3A64"/>
    <rect x="166" y="195" width="464" height="36" rx="12" fill="#2C1830"/>
    <circle cx="196" cy="213" r="6" fill="#FB7185"/>
    <circle cx="217" cy="213" r="6" fill="#F59E0B"/>
    <circle cx="238" cy="213" r="6" fill="#10B981"/>
    <path d="M205 403C255 340 305 310 350 330C400 352 425 430 482 436C528 441 564 401 593 362" stroke="#F9A8D4" stroke-width="6" stroke-linecap="round"/>
    <path d="M205 365C260 410 316 398 355 360C394 321 447 304 500 339C534 361 563 357 593 334" stroke="#93C5FD" stroke-width="5" stroke-linecap="round"/>
    <circle cx="350" cy="330" r="9" fill="#FDE68A"/>
    <circle cx="482" cy="436" r="9" fill="#F9A8D4"/>
    <circle cx="500" cy="339" r="9" fill="#93C5FD"/>
  </g>

  <g>
    <circle cx="1030" cy="470" r="240" fill="#1A1020" stroke="#7C3A6E" stroke-width="3"/>
    <path d="M995 330C900 365 850 471 882 569C913 665 1026 720 1122 692C1204 668 1264 594 1266 507" stroke="#FBCFE8" stroke-width="10" stroke-linecap="round"/>
    <path d="M1023 393C1085 378 1152 415 1173 473C1193 531 1164 594 1111 625" stroke="#FDE68A" stroke-width="9" stroke-linecap="round"/>
    <circle cx="1028" cy="468" r="84" fill="#2A1630" stroke="#E879F9" stroke-opacity="0.45"/>
    <path d="M990 486C1000 454 1034 436 1067 446C1097 455 1117 485 1116 518C1114 554 1084 585 1047 589C1011 592 978 567 970 533" stroke="#C4B5FD" stroke-width="6" stroke-linecap="round"/>
    <circle cx="1065" cy="474" r="6" fill="#FDE68A"/>
    <circle cx="1024" cy="552" r="6" fill="#34D399"/>
    <circle cx="968" cy="516" r="6" fill="#93C5FD"/>
  </g>

  <g>
    <rect x="1190" y="170" width="260" height="230" rx="20" fill="#150D1D" stroke="#6B3A64"/>
    <rect x="1220" y="210" width="64" height="120" rx="14" fill="#2DD4BF" fill-opacity="0.22" stroke="#2DD4BF"/>
    <path d="M1252 237V302" stroke="#2DD4BF" stroke-width="4" stroke-linecap="round"/>
    <path d="M1238 253H1266" stroke="#2DD4BF" stroke-width="4" stroke-linecap="round"/>
    <rect x="1310" y="210" width="110" height="22" rx="11" fill="#FBCFE8"/>
    <rect x="1310" y="247" width="90" height="14" rx="7" fill="#E9D5FF" fill-opacity="0.9"/>
    <rect x="1310" y="273" width="100" height="14" rx="7" fill="#E9D5FF" fill-opacity="0.7"/>
    <rect x="1310" y="299" width="75" height="14" rx="7" fill="#E9D5FF" fill-opacity="0.65"/>
    <path d="M1218 352H1422" stroke="#7C3A6E" stroke-width="3"/>
  </g>

  <g>
    <rect x="180" y="560" width="520" height="220" rx="20" fill="#150D1D" stroke="#6B3A64"/>
    <path d="M215 720H665" stroke="#7C3A6E" stroke-width="3" stroke-linecap="round"/>
    <path d="M240 685C300 610 360 612 420 676C480 742 540 748 610 640" stroke="#F9A8D4" stroke-width="6" stroke-linecap="round"/>
    <path d="M240 650C315 690 365 670 425 620C485 572 545 582 610 680" stroke="#93C5FD" stroke-width="5" stroke-linecap="round"/>
    <circle cx="420" cy="676" r="8" fill="#FDE68A"/>
    <circle cx="425" cy="620" r="8" fill="#34D399"/>
  </g>
</svg>
